<svg width="16" height="17" viewBox="0 0 16 17" fill="none" xmlns="http://www.w3.org/2000/svg">
<path d="M6.00065 1.16797V2.5013H10.0007V1.16797H11.334V2.5013H14.0007C14.3689 2.5013 14.6673 2.79978 14.6673 3.16797V13.8346C14.6673 14.2028 14.3689 14.5013 14.0007 14.5013H2.00065C1.63246 14.5013 1.33398 14.2028 1.33398 13.8346V3.16797C1.33398 2.79978 1.63246 2.5013 2.00065 2.5013H4.66732V1.16797H6.00065ZM13.334 7.83463H2.66732V13.168H13.334V7.83463ZM4.66732 3.83464H2.66732V6.5013H13.334V3.83464H11.334V5.16797H10.0007V3.83464H6.00065V5.16797H4.66732V3.83464Z" fill="#4D596A"/>
</svg>
